<svg id="Layer_1" data-name="Layer 1" xmlns="http://www.w3.org/2000/svg" viewBox="0 0 447.94 100"><title>røyken-videregående-skole</title><path d="M.8,3.18l0,40.09c0,18.93,15,42.24,39,55.75,23.95-13.51,39-36.82,39-55.75L78.9,3.18Z" fill="#fff"/><path d="M0,2.2.05,43.11C.07,62.43,15.4,86.22,39.85,100,64.29,86.22,79.62,62.43,79.64,43.11l0-40.91ZM39.85,81.89c-7.41,0-13.42-1.42-13.42-1.92S32.44,78,39.85,78,53.27,79.46,53.27,80s-6,1.92-13.42,1.92m0-10.3c-11.39,0-20.62-2.07-20.62-3s9.23-3,20.62-3,20.61,2.07,20.61,3-9.23,3-20.61,3m0-12c-14,0-25.32-2.57-25.32-3.63s11.34-3.62,25.32-3.62S65.16,54.94,65.16,56s-11.33,3.63-25.31,3.63M66.13,44.18c-3.09.63-14.63,1.58-26.28,1.58s-23.31-1-26.29-1.58c-.19,0-.36-.15-.28-.34A75.69,75.69,0,0,1,39.48,9.56a.62.62,0,0,1,.73,0A75.68,75.68,0,0,1,66.42,43.84c.07.19-.09.3-.29.34" fill="#231f20"/><path d="M150.75,54.85,150.14,56H137.77L122,38h-4.38V56H106.35V2.23h19.44c12.83,0,21.36,7.14,21.36,17.74,0,7.76-4.85,14.14-12.76,16.75ZM117.64,29.12h6.84c7.07.07,11.22-3.69,11.22-8.61s-4.15-8.37-11.22-8.37h-6.84Z" fill="#231f20"/><path d="M211.68,29.12c0,16.05-12.6,27.8-28.58,27.8a29.86,29.86,0,0,1-15.21-4l-5,6L158,54.85l4.76-5.76a27.22,27.22,0,0,1-8.21-20c0-16,12.51-27.81,28.57-27.81A30.19,30.19,0,0,1,199,5.69L203.69,0l5,4.07L204,9.68a27.28,27.28,0,0,1,7.68,19.44M170.2,40.18l21.58-25.81a16,16,0,0,0-8.68-2.46c-9.6,0-16.52,7.37-16.52,17.21a17.83,17.83,0,0,0,3.62,11.06m29.42-11.06a17.85,17.85,0,0,0-3.15-10.38L175.11,44.33a16.1,16.1,0,0,0,8,2c9.3,0,16.52-7.29,16.52-17.2" fill="#231f20"/><polygon points="264.07 2.23 264.07 3.15 244.1 31.27 244.1 56.01 232.27 56.01 232.27 31.27 212.15 3.15 212.15 2.23 224.44 2.23 238.19 22.74 251.78 2.23 264.07 2.23" fill="#231f20"/><path d="M317.28,54.85,316.67,56H304.91L290.55,35a49.17,49.17,0,0,1-7.91,1.69l-1.23.15V56H269.58V2.23h11.83V26.81l.38-.08c11.22-2.45,18.82-9.52,18.82-21V2.23h12.06V6.3c0,10.52-4.45,18.59-11.9,23.82Z" fill="#231f20"/><polygon points="335.57 12.68 335.57 24.82 356.85 24.82 356.85 33.95 335.57 34.03 335.57 45.56 358.08 45.56 358.08 56.01 323.74 56.01 323.74 2.23 358.08 2.23 358.08 12.68 335.57 12.68" fill="#231f20"/><polygon points="416.39 2.23 416.39 56.01 412.93 56.01 381.67 25.27 381.67 56.01 369.83 56.01 369.83 2.23 373.22 2.23 404.56 33.88 404.56 2.23 416.39 2.23" fill="#231f20"/><rect x="126.94" y="74.82" width="4.58" height="20.79" fill="#231f20"/><path d="M156.16,85.21c0,6.21-4.24,10.4-10.42,10.4H137V74.82h8.76c6.33,0,10.42,4.22,10.42,10.39m-4.66,0c0-3.8-2.37-6.35-5.94-6.35h-4V91.57h4c3.63,0,5.94-2.58,5.94-6.36" fill="#231f20"/><polygon points="164.73 78.86 164.73 83.55 172.96 83.55 172.96 87.09 164.73 87.12 164.73 91.57 173.44 91.57 173.44 95.61 160.15 95.61 160.15 74.82 173.44 74.82 173.44 78.86 164.73 78.86" fill="#231f20"/><path d="M195.32,95.17l-.24.44H190.3l-6.09-7h-1.69v7h-4.37V74.82h7.52c5,0,8.25,2.76,8.25,6.86A6.74,6.74,0,0,1,189,88.15Zm-12.8-10h2.64c2.74,0,4.34-1.42,4.34-3.32s-1.6-3.24-4.34-3.24h-2.64Z" fill="#231f20"/><polygon points="203.27 78.86 203.27 83.55 211.5 83.55 211.5 87.09 203.27 87.12 203.27 91.57 211.97 91.57 211.97 95.61 198.7 95.61 198.7 74.82 211.97 74.82 211.97 78.86 203.27 78.86" fill="#231f20"/><path d="M237,84.18v1A10.49,10.49,0,0,1,226.44,96c-6.21,0-11.23-4.37-11.23-10.7s5-10.81,11.31-10.81a12.42,12.42,0,0,1,8.18,2.91l-2.21,3.3-.2.06a8.73,8.73,0,0,0-5.77-2.11A6.69,6.69,0,0,0,226.46,92a5.77,5.77,0,0,0,5.71-4.25H226.4V84.18Z" fill="#231f20"/><path d="M253.51,91.6h-9.95l-1.75,4h-4.64l9.18-20a3.45,3.45,0,0,1-1.51-2.85,3.7,3.7,0,0,1,7.39,0,3.47,3.47,0,0,1-1.51,2.88l9.21,19.93h-4.64Zm-1.63-3.71-3.36-7.58-3.33,7.58ZM246.82,72.8a1.63,1.63,0,0,0,1.73,1.6,1.61,1.61,0,0,0,1.69-1.6,1.64,1.64,0,0,0-1.69-1.61,1.66,1.66,0,0,0-1.73,1.61" fill="#231f20"/><polygon points="266.92 78.86 266.92 83.55 275.14 83.55 275.14 87.09 266.92 87.12 266.92 91.57 275.62 91.57 275.62 95.61 262.34 95.61 262.34 74.82 275.62 74.82 275.62 78.86 266.92 78.86" fill="#231f20"/><polygon points="298.34 74.82 298.34 95.61 297 95.61 284.91 83.73 284.91 95.61 280.34 95.61 280.34 74.82 281.65 74.82 293.76 87.06 293.76 74.82 298.34 74.82" fill="#231f20"/><path d="M323,85.21c0,6.21-4.25,10.4-10.43,10.4H303.8V74.82h8.76C318.89,74.82,323,79,323,85.21m-4.66,0c0-3.8-2.38-6.35-5.95-6.35h-4V91.57h4c3.63,0,5.95-2.58,5.95-6.36" fill="#231f20"/><polygon points="331.56 78.86 331.56 83.55 339.78 83.55 339.78 87.09 331.56 87.12 331.56 91.57 340.25 91.57 340.25 95.61 326.98 95.61 326.98 74.82 340.25 74.82 340.25 78.86 331.56 78.86" fill="#231f20"/><path d="M353.51,94.57l-.75-4.3.1-.06a16.93,16.93,0,0,0,7.24,1.87c2.5,0,4.19-.83,4.19-2.26,0-1.07-.74-1.67-1.93-2.08L357,86.25a5.56,5.56,0,0,1-4.05-5.52c0-4,3.3-6.27,8.11-6.27a14.73,14.73,0,0,1,6.48,1.37V80a12.34,12.34,0,0,0-6.33-1.67c-2.73,0-3.68,1-3.68,2.41,0,.68.24,1.66,1.84,2.2l5.17,1.54c2.67.78,4.31,2.65,4.31,5.29,0,4-3.57,6.24-8.53,6.24a19.89,19.89,0,0,1-6.8-1.4" fill="#231f20"/><path d="M391.13,95.17l-.24.44h-4.55l-5.55-8.11a18,18,0,0,1-3.06.65l-.47.06v7.4h-4.58V74.82h4.58v9.5l.14,0c4.34-1,7.28-3.68,7.28-8.11V74.82h4.67v1.57a10.76,10.76,0,0,1-4.61,9.21Z" fill="#231f20"/><path d="M392.36,85.21a10.69,10.69,0,0,1,11.05-10.75c6.32,0,11,4.58,11,10.75a10.69,10.69,0,0,1-11,10.76c-6.33,0-11.05-4.58-11.05-10.76m17.43,0a6.4,6.4,0,0,0-6.38-6.65,6.66,6.66,0,1,0,6.38,6.65" fill="#231f20"/><polygon points="431.4 91.45 431.4 95.61 418.42 95.61 418.42 74.82 422.99 74.82 422.99 91.45 431.4 91.45" fill="#231f20"/><polygon points="439.24 78.86 439.24 83.55 447.47 83.55 447.47 87.09 439.24 87.12 439.24 91.57 447.94 91.57 447.94 95.61 434.66 95.61 434.66 74.82 447.94 74.82 447.94 78.86 439.24 78.86" fill="#231f20"/><polygon points="124.06 74.82 124.06 75.17 115.57 95.61 111.83 95.61 103.44 75.17 103.44 74.82 108.13 74.82 113.76 90.02 119.3 74.82 124.06 74.82" fill="#231f20"/></svg>